<?xml version="1.0" encoding="utf-8"?><svg viewBox="0 0 16 16" xmlns="http://www.w3.org/2000/svg" xmlns:xlink="http://www.w3.org/1999/xlink"><style>:root>svg{display:none}:root>svg:target{display:block}</style><svg fill="none" viewBox="0 0 16 16" id="Instagram" xmlns="http://www.w3.org/2000/svg"><path fill-rule="evenodd" clip-rule="evenodd" d="M5 0h6a5 5 0 015 5v6a5 5 0 01-5 5H5a5 5 0 01-5-5V5a5 5 0 015-5zm6 14.5c1.93 0 3.5-1.57 3.5-3.5V5c0-1.93-1.57-3.5-3.5-3.5H5C3.07 1.5 1.5 3.07 1.5 5v6c0 1.93 1.57 3.5 3.5 3.5h6zM4 8a4 4 0 118 0 4 4 0 01-8 0zm1.5 0c0 1.378 1.122 2.5 2.5 2.5s2.5-1.122 2.5-2.5c0-1.379-1.122-2.5-2.5-2.5A2.503 2.503 0 005.5 8zm7.333-4.3a.533.533 0 11-1.066 0 .533.533 0 011.066 0z" fill="#B0B8BC"/></svg><svg fill="none" viewBox="0 0 16 16" id="LinkedIn" xmlns="http://www.w3.org/2000/svg"><path fill-rule="evenodd" clip-rule="evenodd" d="M3.5 1.75a1.75 1.75 0 11-3.5 0 1.75 1.75 0 013.5 0zM0 5h3.578v11H0V5zm13.3.121a3.048 3.048 0 00-.09-.028 2.32 2.32 0 00-.145-.028A3.207 3.207 0 0012.423 5c-2.086 0-3.409 1.517-3.845 2.103V5H5v11h3.578v-6s2.704-3.766 3.845-1v7H16V8.577a3.568 3.568 0 00-2.7-3.456z" fill="#B0B8BC"/></svg><svg fill="none" viewBox="0 0 16 16" id="Twitter" xmlns="http://www.w3.org/2000/svg"><path d="M16 2.872a6.839 6.839 0 01-1.89.518 3.262 3.262 0 001.443-1.813 6.555 6.555 0 01-2.08.794 3.28 3.28 0 00-5.674 2.243c0 .26.022.51.076.748a9.284 9.284 0 01-6.761-3.43 3.285 3.285 0 001.008 4.384A3.24 3.24 0 01.64 5.91v.036A3.295 3.295 0 003.268 9.17a3.274 3.274 0 01-.86.108 2.9 2.9 0 01-.621-.056 3.311 3.311 0 003.065 2.285 6.59 6.59 0 01-4.067 1.4c-.269 0-.527-.013-.785-.046a9.234 9.234 0 005.032 1.472c6.036 0 9.336-5 9.336-9.334 0-.145-.005-.285-.012-.424A6.544 6.544 0 0016 2.872z" fill="#B0B8BC"/></svg><svg fill="none" viewBox="0 0 8 16" id="facebook" xmlns="http://www.w3.org/2000/svg"><path d="M5 5.5v-2a1 1 0 011-1h1V0H5a3 3 0 00-3 3v2.5H0V8h2v8h3V8h2l1-2.5H5z" fill="#B0B8BC"/></svg><svg fill="none" viewBox="0 0 16 16" id="youtube" xmlns="http://www.w3.org/2000/svg"><path fill-rule="evenodd" clip-rule="evenodd" d="M13.456 2.759c.959.054 1.43.196 1.864.968.452.77.68 2.099.68 4.438v.008c0 2.328-.228 3.666-.679 4.429-.434.772-.905.912-1.864.977-.959.055-3.368.088-5.455.088-2.091 0-4.501-.033-5.459-.09-.957-.064-1.428-.204-1.866-.976C.23 11.838 0 10.5 0 8.17v-.007c0-2.338.23-3.666.677-4.437.438-.773.91-.914 1.867-.97.957-.063 3.367-.09 5.458-.09 2.087 0 4.496.027 5.454.092zM11 8.167l-5-3v6l5-3z" fill="#B0B8BC"/></svg></svg>